<mxfile host="app.diagrams.net" agent="Mozilla/5.0 (Windows NT 10.0; Win64; x64) AppleWebKit/537.36 (KHTML, like Gecko) Chrome/131.0.0.0 Safari/537.36" version="24.8.6">
  <diagram name="Page-1" id="C2cTvVuM6cubVcAJ-DFA">
    <mxGraphModel dx="774" dy="737" grid="1" gridSize="10" guides="1" tooltips="1" connect="1" arrows="1" fold="1" page="1" pageScale="1" pageWidth="850" pageHeight="1100" math="0" shadow="0">
      <root>
        <mxCell id="0" />
        <mxCell id="1" parent="0" />
        <mxCell id="JZGfu8RHY5WdUCHNbkXD-1" value="&lt;h1 style=&quot;margin-top: 0px;&quot;&gt;&lt;u&gt;main()&lt;/u&gt;&lt;/h1&gt;" style="text;html=1;whiteSpace=wrap;overflow=hidden;rounded=0;" vertex="1" parent="1">
          <mxGeometry x="130" y="20" width="180" height="40" as="geometry" />
        </mxCell>
        <mxCell id="JZGfu8RHY5WdUCHNbkXD-5" style="edgeStyle=orthogonalEdgeStyle;rounded=0;orthogonalLoop=1;jettySize=auto;html=1;exitX=0.5;exitY=1;exitDx=0;exitDy=0;exitPerimeter=0;entryX=0.5;entryY=0;entryDx=0;entryDy=0;" edge="1" parent="1" source="JZGfu8RHY5WdUCHNbkXD-2" target="JZGfu8RHY5WdUCHNbkXD-4">
          <mxGeometry relative="1" as="geometry" />
        </mxCell>
        <mxCell id="JZGfu8RHY5WdUCHNbkXD-2" value="START" style="strokeWidth=2;html=1;shape=mxgraph.flowchart.start_1;whiteSpace=wrap;" vertex="1" parent="1">
          <mxGeometry x="170" y="70" width="100" height="60" as="geometry" />
        </mxCell>
        <mxCell id="JZGfu8RHY5WdUCHNbkXD-11" style="edgeStyle=orthogonalEdgeStyle;rounded=0;orthogonalLoop=1;jettySize=auto;html=1;exitX=1;exitY=0.5;exitDx=0;exitDy=0;entryX=0;entryY=0.5;entryDx=0;entryDy=0;" edge="1" parent="1" source="JZGfu8RHY5WdUCHNbkXD-3" target="JZGfu8RHY5WdUCHNbkXD-10">
          <mxGeometry relative="1" as="geometry" />
        </mxCell>
        <mxCell id="JZGfu8RHY5WdUCHNbkXD-3" value="GET expenses[i]" style="shape=parallelogram;perimeter=parallelogramPerimeter;whiteSpace=wrap;html=1;fixedSize=1;" vertex="1" parent="1">
          <mxGeometry x="290" y="285" width="140" height="30" as="geometry" />
        </mxCell>
        <mxCell id="JZGfu8RHY5WdUCHNbkXD-7" style="edgeStyle=orthogonalEdgeStyle;rounded=0;orthogonalLoop=1;jettySize=auto;html=1;exitX=0.5;exitY=1;exitDx=0;exitDy=0;entryX=0.5;entryY=0;entryDx=0;entryDy=0;" edge="1" parent="1" source="JZGfu8RHY5WdUCHNbkXD-4" target="JZGfu8RHY5WdUCHNbkXD-6">
          <mxGeometry relative="1" as="geometry" />
        </mxCell>
        <mxCell id="JZGfu8RHY5WdUCHNbkXD-4" value="INITIALIZE i = 0" style="shape=hexagon;perimeter=hexagonPerimeter2;whiteSpace=wrap;html=1;fixedSize=1;" vertex="1" parent="1">
          <mxGeometry x="160" y="170" width="120" height="50" as="geometry" />
        </mxCell>
        <mxCell id="JZGfu8RHY5WdUCHNbkXD-8" style="edgeStyle=orthogonalEdgeStyle;rounded=0;orthogonalLoop=1;jettySize=auto;html=1;exitX=1;exitY=0.5;exitDx=0;exitDy=0;entryX=0;entryY=0.5;entryDx=0;entryDy=0;" edge="1" parent="1" source="JZGfu8RHY5WdUCHNbkXD-6" target="JZGfu8RHY5WdUCHNbkXD-3">
          <mxGeometry relative="1" as="geometry" />
        </mxCell>
        <mxCell id="JZGfu8RHY5WdUCHNbkXD-17" style="edgeStyle=orthogonalEdgeStyle;rounded=0;orthogonalLoop=1;jettySize=auto;html=1;exitX=0.5;exitY=1;exitDx=0;exitDy=0;entryX=0.5;entryY=0;entryDx=0;entryDy=0;" edge="1" parent="1" source="JZGfu8RHY5WdUCHNbkXD-6" target="JZGfu8RHY5WdUCHNbkXD-16">
          <mxGeometry relative="1" as="geometry" />
        </mxCell>
        <mxCell id="JZGfu8RHY5WdUCHNbkXD-6" value="i &amp;lt; 7&lt;div&gt;?&lt;/div&gt;" style="rhombus;whiteSpace=wrap;html=1;" vertex="1" parent="1">
          <mxGeometry x="180" y="260" width="80" height="80" as="geometry" />
        </mxCell>
        <mxCell id="JZGfu8RHY5WdUCHNbkXD-9" value="YES" style="text;html=1;align=center;verticalAlign=middle;whiteSpace=wrap;rounded=0;" vertex="1" parent="1">
          <mxGeometry x="250" y="270" width="60" height="30" as="geometry" />
        </mxCell>
        <mxCell id="JZGfu8RHY5WdUCHNbkXD-10" value="i++" style="rounded=0;whiteSpace=wrap;html=1;" vertex="1" parent="1">
          <mxGeometry x="470" y="280" width="50" height="40" as="geometry" />
        </mxCell>
        <mxCell id="JZGfu8RHY5WdUCHNbkXD-12" value="" style="endArrow=classic;html=1;rounded=0;" edge="1" parent="1">
          <mxGeometry width="50" height="50" relative="1" as="geometry">
            <mxPoint x="560" y="240" as="sourcePoint" />
            <mxPoint x="220" y="240" as="targetPoint" />
          </mxGeometry>
        </mxCell>
        <mxCell id="JZGfu8RHY5WdUCHNbkXD-13" value="" style="endArrow=none;html=1;rounded=0;exitX=1;exitY=0.5;exitDx=0;exitDy=0;" edge="1" parent="1" source="JZGfu8RHY5WdUCHNbkXD-10">
          <mxGeometry width="50" height="50" relative="1" as="geometry">
            <mxPoint x="370" y="410" as="sourcePoint" />
            <mxPoint x="560" y="300" as="targetPoint" />
          </mxGeometry>
        </mxCell>
        <mxCell id="JZGfu8RHY5WdUCHNbkXD-14" value="" style="endArrow=none;html=1;rounded=0;" edge="1" parent="1">
          <mxGeometry width="50" height="50" relative="1" as="geometry">
            <mxPoint x="560" y="300" as="sourcePoint" />
            <mxPoint x="560" y="240" as="targetPoint" />
          </mxGeometry>
        </mxCell>
        <mxCell id="JZGfu8RHY5WdUCHNbkXD-15" value="NO" style="text;html=1;align=center;verticalAlign=middle;whiteSpace=wrap;rounded=0;" vertex="1" parent="1">
          <mxGeometry x="210" y="350" width="60" height="30" as="geometry" />
        </mxCell>
        <mxCell id="JZGfu8RHY5WdUCHNbkXD-50" style="edgeStyle=orthogonalEdgeStyle;rounded=0;orthogonalLoop=1;jettySize=auto;html=1;exitX=0.5;exitY=1;exitDx=0;exitDy=0;entryX=0.5;entryY=0;entryDx=0;entryDy=0;" edge="1" parent="1" source="JZGfu8RHY5WdUCHNbkXD-16" target="JZGfu8RHY5WdUCHNbkXD-49">
          <mxGeometry relative="1" as="geometry" />
        </mxCell>
        <mxCell id="JZGfu8RHY5WdUCHNbkXD-16" value="CALL module,&lt;div&gt;average = getWeeklyAverage(expenses)&lt;/div&gt;" style="shape=process;whiteSpace=wrap;html=1;backgroundOutline=1;" vertex="1" parent="1">
          <mxGeometry x="70" y="390" width="300" height="60" as="geometry" />
        </mxCell>
        <mxCell id="JZGfu8RHY5WdUCHNbkXD-18" value="CALL module,&lt;div&gt;printExpenseDiff(expenses, average)&lt;/div&gt;" style="shape=process;whiteSpace=wrap;html=1;backgroundOutline=1;" vertex="1" parent="1">
          <mxGeometry x="70" y="540" width="300" height="60" as="geometry" />
        </mxCell>
        <mxCell id="JZGfu8RHY5WdUCHNbkXD-20" value="STOP" style="strokeWidth=2;html=1;shape=mxgraph.flowchart.terminator;whiteSpace=wrap;" vertex="1" parent="1">
          <mxGeometry x="170" y="680" width="100" height="40" as="geometry" />
        </mxCell>
        <mxCell id="JZGfu8RHY5WdUCHNbkXD-21" style="edgeStyle=orthogonalEdgeStyle;rounded=0;orthogonalLoop=1;jettySize=auto;html=1;exitX=0.5;exitY=1;exitDx=0;exitDy=0;entryX=0.5;entryY=0;entryDx=0;entryDy=0;entryPerimeter=0;" edge="1" parent="1" source="JZGfu8RHY5WdUCHNbkXD-18" target="JZGfu8RHY5WdUCHNbkXD-20">
          <mxGeometry relative="1" as="geometry" />
        </mxCell>
        <mxCell id="JZGfu8RHY5WdUCHNbkXD-22" value="&lt;h1 style=&quot;margin-top: 0px;&quot;&gt;&lt;u&gt;getWeeklyAverage(expenseArray[])&lt;/u&gt;&lt;/h1&gt;" style="text;html=1;whiteSpace=wrap;overflow=hidden;rounded=0;" vertex="1" parent="1">
          <mxGeometry x="610" y="20" width="420" height="40" as="geometry" />
        </mxCell>
        <mxCell id="JZGfu8RHY5WdUCHNbkXD-25" style="edgeStyle=orthogonalEdgeStyle;rounded=0;orthogonalLoop=1;jettySize=auto;html=1;exitX=0.5;exitY=1;exitDx=0;exitDy=0;exitPerimeter=0;entryX=0.5;entryY=0;entryDx=0;entryDy=0;" edge="1" parent="1" source="JZGfu8RHY5WdUCHNbkXD-23" target="JZGfu8RHY5WdUCHNbkXD-24">
          <mxGeometry relative="1" as="geometry" />
        </mxCell>
        <mxCell id="JZGfu8RHY5WdUCHNbkXD-23" value="getWeeklyAverage(expenseArray[])" style="strokeWidth=2;html=1;shape=mxgraph.flowchart.start_1;whiteSpace=wrap;" vertex="1" parent="1">
          <mxGeometry x="700" y="70" width="250" height="60" as="geometry" />
        </mxCell>
        <mxCell id="JZGfu8RHY5WdUCHNbkXD-27" style="edgeStyle=orthogonalEdgeStyle;rounded=0;orthogonalLoop=1;jettySize=auto;html=1;exitX=0.5;exitY=1;exitDx=0;exitDy=0;entryX=0.5;entryY=0;entryDx=0;entryDy=0;" edge="1" parent="1" source="JZGfu8RHY5WdUCHNbkXD-24" target="JZGfu8RHY5WdUCHNbkXD-26">
          <mxGeometry relative="1" as="geometry" />
        </mxCell>
        <mxCell id="JZGfu8RHY5WdUCHNbkXD-24" value="INITIALIZE sum = 0,&lt;div&gt;i = 0&lt;/div&gt;" style="shape=hexagon;perimeter=hexagonPerimeter2;whiteSpace=wrap;html=1;fixedSize=1;" vertex="1" parent="1">
          <mxGeometry x="745" y="175" width="160" height="40" as="geometry" />
        </mxCell>
        <mxCell id="JZGfu8RHY5WdUCHNbkXD-29" style="edgeStyle=orthogonalEdgeStyle;rounded=0;orthogonalLoop=1;jettySize=auto;html=1;exitX=1;exitY=0.5;exitDx=0;exitDy=0;entryX=0;entryY=0.5;entryDx=0;entryDy=0;" edge="1" parent="1" source="JZGfu8RHY5WdUCHNbkXD-26" target="JZGfu8RHY5WdUCHNbkXD-28">
          <mxGeometry relative="1" as="geometry" />
        </mxCell>
        <mxCell id="JZGfu8RHY5WdUCHNbkXD-38" style="edgeStyle=orthogonalEdgeStyle;rounded=0;orthogonalLoop=1;jettySize=auto;html=1;exitX=0.5;exitY=1;exitDx=0;exitDy=0;entryX=0.5;entryY=0;entryDx=0;entryDy=0;" edge="1" parent="1" source="JZGfu8RHY5WdUCHNbkXD-26" target="JZGfu8RHY5WdUCHNbkXD-37">
          <mxGeometry relative="1" as="geometry" />
        </mxCell>
        <mxCell id="JZGfu8RHY5WdUCHNbkXD-26" value="i &amp;lt; 7&lt;div&gt;?&lt;/div&gt;" style="rhombus;whiteSpace=wrap;html=1;" vertex="1" parent="1">
          <mxGeometry x="785" y="245" width="80" height="80" as="geometry" />
        </mxCell>
        <mxCell id="JZGfu8RHY5WdUCHNbkXD-32" style="edgeStyle=orthogonalEdgeStyle;rounded=0;orthogonalLoop=1;jettySize=auto;html=1;exitX=1;exitY=0.5;exitDx=0;exitDy=0;entryX=0;entryY=0.5;entryDx=0;entryDy=0;" edge="1" parent="1" source="JZGfu8RHY5WdUCHNbkXD-28" target="JZGfu8RHY5WdUCHNbkXD-31">
          <mxGeometry relative="1" as="geometry" />
        </mxCell>
        <mxCell id="JZGfu8RHY5WdUCHNbkXD-28" value="COMPUTE&lt;div&gt;sum += expenseArray[i]&lt;/div&gt;" style="rounded=0;whiteSpace=wrap;html=1;" vertex="1" parent="1">
          <mxGeometry x="900" y="260" width="165" height="50" as="geometry" />
        </mxCell>
        <mxCell id="JZGfu8RHY5WdUCHNbkXD-30" value="YES" style="text;html=1;align=center;verticalAlign=middle;whiteSpace=wrap;rounded=0;" vertex="1" parent="1">
          <mxGeometry x="845" y="255" width="60" height="30" as="geometry" />
        </mxCell>
        <mxCell id="JZGfu8RHY5WdUCHNbkXD-31" value="i++" style="rounded=0;whiteSpace=wrap;html=1;" vertex="1" parent="1">
          <mxGeometry x="1100" y="265" width="60" height="40" as="geometry" />
        </mxCell>
        <mxCell id="JZGfu8RHY5WdUCHNbkXD-33" value="" style="endArrow=classic;html=1;rounded=0;" edge="1" parent="1">
          <mxGeometry width="50" height="50" relative="1" as="geometry">
            <mxPoint x="1190" y="230" as="sourcePoint" />
            <mxPoint x="820" y="230" as="targetPoint" />
          </mxGeometry>
        </mxCell>
        <mxCell id="JZGfu8RHY5WdUCHNbkXD-34" value="" style="endArrow=none;html=1;rounded=0;" edge="1" parent="1">
          <mxGeometry width="50" height="50" relative="1" as="geometry">
            <mxPoint x="1190" y="280" as="sourcePoint" />
            <mxPoint x="1190" y="230" as="targetPoint" />
          </mxGeometry>
        </mxCell>
        <mxCell id="JZGfu8RHY5WdUCHNbkXD-35" value="" style="endArrow=none;html=1;rounded=0;exitX=1;exitY=0.5;exitDx=0;exitDy=0;" edge="1" parent="1" source="JZGfu8RHY5WdUCHNbkXD-31">
          <mxGeometry width="50" height="50" relative="1" as="geometry">
            <mxPoint x="1050" y="310" as="sourcePoint" />
            <mxPoint x="1190" y="280" as="targetPoint" />
          </mxGeometry>
        </mxCell>
        <mxCell id="JZGfu8RHY5WdUCHNbkXD-36" value="NO" style="text;html=1;align=center;verticalAlign=middle;whiteSpace=wrap;rounded=0;" vertex="1" parent="1">
          <mxGeometry x="820" y="325" width="60" height="30" as="geometry" />
        </mxCell>
        <mxCell id="JZGfu8RHY5WdUCHNbkXD-37" value="COMPUTE&lt;div&gt;average = sum/7&lt;/div&gt;" style="rounded=0;whiteSpace=wrap;html=1;" vertex="1" parent="1">
          <mxGeometry x="765" y="370" width="120" height="60" as="geometry" />
        </mxCell>
        <mxCell id="JZGfu8RHY5WdUCHNbkXD-39" value="RETURN average" style="strokeWidth=2;html=1;shape=mxgraph.flowchart.terminator;whiteSpace=wrap;" vertex="1" parent="1">
          <mxGeometry x="757.5" y="470" width="135" height="40" as="geometry" />
        </mxCell>
        <mxCell id="JZGfu8RHY5WdUCHNbkXD-40" style="edgeStyle=orthogonalEdgeStyle;rounded=0;orthogonalLoop=1;jettySize=auto;html=1;exitX=0.5;exitY=1;exitDx=0;exitDy=0;entryX=0.5;entryY=0;entryDx=0;entryDy=0;entryPerimeter=0;" edge="1" parent="1" source="JZGfu8RHY5WdUCHNbkXD-37" target="JZGfu8RHY5WdUCHNbkXD-39">
          <mxGeometry relative="1" as="geometry" />
        </mxCell>
        <mxCell id="JZGfu8RHY5WdUCHNbkXD-41" value="&lt;h1 style=&quot;margin-top: 0px;&quot;&gt;&lt;u&gt;printExpenseDiff(expenseArray[], average)&lt;/u&gt;&lt;/h1&gt;" style="text;html=1;whiteSpace=wrap;overflow=hidden;rounded=0;" vertex="1" parent="1">
          <mxGeometry x="400" y="560" width="530" height="40" as="geometry" />
        </mxCell>
        <mxCell id="JZGfu8RHY5WdUCHNbkXD-44" style="edgeStyle=orthogonalEdgeStyle;rounded=0;orthogonalLoop=1;jettySize=auto;html=1;exitX=0.5;exitY=1;exitDx=0;exitDy=0;exitPerimeter=0;entryX=0.5;entryY=0;entryDx=0;entryDy=0;" edge="1" parent="1" source="JZGfu8RHY5WdUCHNbkXD-42" target="JZGfu8RHY5WdUCHNbkXD-43">
          <mxGeometry relative="1" as="geometry" />
        </mxCell>
        <mxCell id="JZGfu8RHY5WdUCHNbkXD-42" value="printExpenseDiff(expenseArray[], average)" style="strokeWidth=2;html=1;shape=mxgraph.flowchart.start_1;whiteSpace=wrap;" vertex="1" parent="1">
          <mxGeometry x="535" y="610" width="250" height="60" as="geometry" />
        </mxCell>
        <mxCell id="JZGfu8RHY5WdUCHNbkXD-46" style="edgeStyle=orthogonalEdgeStyle;rounded=0;orthogonalLoop=1;jettySize=auto;html=1;exitX=0.5;exitY=1;exitDx=0;exitDy=0;entryX=0.5;entryY=0;entryDx=0;entryDy=0;" edge="1" parent="1" source="JZGfu8RHY5WdUCHNbkXD-43" target="JZGfu8RHY5WdUCHNbkXD-45">
          <mxGeometry relative="1" as="geometry" />
        </mxCell>
        <mxCell id="JZGfu8RHY5WdUCHNbkXD-43" value="INITIALIZE i = 0" style="shape=hexagon;perimeter=hexagonPerimeter2;whiteSpace=wrap;html=1;fixedSize=1;" vertex="1" parent="1">
          <mxGeometry x="600" y="690" width="120" height="40" as="geometry" />
        </mxCell>
        <mxCell id="JZGfu8RHY5WdUCHNbkXD-53" style="edgeStyle=orthogonalEdgeStyle;rounded=0;orthogonalLoop=1;jettySize=auto;html=1;exitX=1;exitY=0.5;exitDx=0;exitDy=0;" edge="1" parent="1" source="JZGfu8RHY5WdUCHNbkXD-45" target="JZGfu8RHY5WdUCHNbkXD-47">
          <mxGeometry relative="1" as="geometry" />
        </mxCell>
        <mxCell id="JZGfu8RHY5WdUCHNbkXD-45" value="i &amp;lt; 7&lt;div&gt;?&lt;/div&gt;" style="rhombus;whiteSpace=wrap;html=1;" vertex="1" parent="1">
          <mxGeometry x="620" y="750" width="80" height="60" as="geometry" />
        </mxCell>
        <mxCell id="JZGfu8RHY5WdUCHNbkXD-54" style="edgeStyle=orthogonalEdgeStyle;rounded=0;orthogonalLoop=1;jettySize=auto;html=1;exitX=1;exitY=0.5;exitDx=0;exitDy=0;" edge="1" parent="1" source="JZGfu8RHY5WdUCHNbkXD-47" target="JZGfu8RHY5WdUCHNbkXD-48">
          <mxGeometry relative="1" as="geometry" />
        </mxCell>
        <mxCell id="JZGfu8RHY5WdUCHNbkXD-47" value="COMPUTE&lt;div&gt;difference = expenseArray[i] - average&lt;/div&gt;" style="rounded=0;whiteSpace=wrap;html=1;" vertex="1" parent="1">
          <mxGeometry x="730" y="760" width="220" height="40" as="geometry" />
        </mxCell>
        <mxCell id="JZGfu8RHY5WdUCHNbkXD-56" style="edgeStyle=orthogonalEdgeStyle;rounded=0;orthogonalLoop=1;jettySize=auto;html=1;exitX=1;exitY=0.5;exitDx=0;exitDy=0;entryX=0;entryY=0.5;entryDx=0;entryDy=0;" edge="1" parent="1" source="JZGfu8RHY5WdUCHNbkXD-48" target="JZGfu8RHY5WdUCHNbkXD-55">
          <mxGeometry relative="1" as="geometry" />
        </mxCell>
        <mxCell id="JZGfu8RHY5WdUCHNbkXD-48" value="DISPLAY&amp;nbsp;&lt;div&gt;i+1, expenseArray[i], difference&amp;nbsp;&lt;/div&gt;" style="shape=parallelogram;perimeter=parallelogramPerimeter;whiteSpace=wrap;html=1;fixedSize=1;" vertex="1" parent="1">
          <mxGeometry x="970" y="760" width="215" height="40" as="geometry" />
        </mxCell>
        <mxCell id="JZGfu8RHY5WdUCHNbkXD-51" style="edgeStyle=orthogonalEdgeStyle;rounded=0;orthogonalLoop=1;jettySize=auto;html=1;exitX=0.5;exitY=1;exitDx=0;exitDy=0;entryX=0.5;entryY=0;entryDx=0;entryDy=0;" edge="1" parent="1" source="JZGfu8RHY5WdUCHNbkXD-49" target="JZGfu8RHY5WdUCHNbkXD-18">
          <mxGeometry relative="1" as="geometry" />
        </mxCell>
        <mxCell id="JZGfu8RHY5WdUCHNbkXD-49" value="DISPLAY average" style="shape=parallelogram;perimeter=parallelogramPerimeter;whiteSpace=wrap;html=1;fixedSize=1;" vertex="1" parent="1">
          <mxGeometry x="160" y="480" width="120" height="40" as="geometry" />
        </mxCell>
        <mxCell id="JZGfu8RHY5WdUCHNbkXD-52" value="YES" style="text;html=1;align=center;verticalAlign=middle;whiteSpace=wrap;rounded=0;" vertex="1" parent="1">
          <mxGeometry x="680" y="750" width="60" height="30" as="geometry" />
        </mxCell>
        <mxCell id="JZGfu8RHY5WdUCHNbkXD-55" value="i++" style="rounded=0;whiteSpace=wrap;html=1;" vertex="1" parent="1">
          <mxGeometry x="1210" y="760" width="50" height="40" as="geometry" />
        </mxCell>
        <mxCell id="JZGfu8RHY5WdUCHNbkXD-58" value="" style="endArrow=classic;html=1;rounded=0;" edge="1" parent="1">
          <mxGeometry width="50" height="50" relative="1" as="geometry">
            <mxPoint x="1280" y="740" as="sourcePoint" />
            <mxPoint x="660" y="740" as="targetPoint" />
          </mxGeometry>
        </mxCell>
        <mxCell id="JZGfu8RHY5WdUCHNbkXD-59" value="" style="endArrow=none;html=1;rounded=0;" edge="1" parent="1">
          <mxGeometry width="50" height="50" relative="1" as="geometry">
            <mxPoint x="1280" y="780" as="sourcePoint" />
            <mxPoint x="1280" y="740" as="targetPoint" />
          </mxGeometry>
        </mxCell>
        <mxCell id="JZGfu8RHY5WdUCHNbkXD-60" value="" style="endArrow=none;html=1;rounded=0;exitX=1;exitY=0.5;exitDx=0;exitDy=0;" edge="1" parent="1" source="JZGfu8RHY5WdUCHNbkXD-55">
          <mxGeometry width="50" height="50" relative="1" as="geometry">
            <mxPoint x="1030" y="760" as="sourcePoint" />
            <mxPoint x="1280" y="780" as="targetPoint" />
          </mxGeometry>
        </mxCell>
        <mxCell id="JZGfu8RHY5WdUCHNbkXD-61" value="NO" style="text;html=1;align=center;verticalAlign=middle;whiteSpace=wrap;rounded=0;" vertex="1" parent="1">
          <mxGeometry x="660" y="810" width="60" height="30" as="geometry" />
        </mxCell>
        <mxCell id="JZGfu8RHY5WdUCHNbkXD-62" value="RETURN" style="strokeWidth=2;html=1;shape=mxgraph.flowchart.terminator;whiteSpace=wrap;" vertex="1" parent="1">
          <mxGeometry x="610" y="850" width="100" height="40" as="geometry" />
        </mxCell>
        <mxCell id="JZGfu8RHY5WdUCHNbkXD-63" style="edgeStyle=orthogonalEdgeStyle;rounded=0;orthogonalLoop=1;jettySize=auto;html=1;exitX=0.5;exitY=1;exitDx=0;exitDy=0;entryX=0.5;entryY=0;entryDx=0;entryDy=0;entryPerimeter=0;" edge="1" parent="1" source="JZGfu8RHY5WdUCHNbkXD-45" target="JZGfu8RHY5WdUCHNbkXD-62">
          <mxGeometry relative="1" as="geometry" />
        </mxCell>
      </root>
    </mxGraphModel>
  </diagram>
</mxfile>
